<svg width="16" height="16" viewBox="0 0 16 16" fill="none" xmlns="http://www.w3.org/2000/svg">
<circle cx="8" cy="8" r="8" fill="white"/>
<g clip-path="url(#clip0_5_66)">
<path d="M6.80659 5.12766H5.43681C5.36861 5.12766 5.32811 5.20387 5.36628 5.26039L9.14547 10.8569C9.16101 10.8799 9.1868 10.8939 9.21457 10.8943L10.7064 10.9194C10.7757 10.9205 10.8173 10.8427 10.7778 10.7857L6.87651 5.16424C6.8606 5.14133 6.83448 5.12766 6.80659 5.12766Z" fill="#302B3F"/>
<path d="M10.3302 5.06395C10.3771 5.01135 10.4578 5.00675 10.5104 5.05369C10.563 5.10063 10.5676 5.18131 10.5207 5.23392L5.4143 10.9573C5.36737 11.0099 5.28668 11.0145 5.23408 10.9676C5.18147 10.9206 5.17687 10.84 5.22381 10.7874L10.3302 5.06395Z" fill="#302B3F"/>
</g>
<defs>
<clipPath id="clip0_5_66">
<rect width="6" height="6" fill="white" transform="translate(5 5)"/>
</clipPath>
</defs>
</svg>
